<?xml version="1.0" encoding="UTF-8"?>
<svg height="128px" viewBox="0 0 128 128" width="128px" xmlns="http://www.w3.org/2000/svg" xmlns:xlink="http://www.w3.org/1999/xlink">
    <linearGradient id="a" gradientUnits="userSpaceOnUse" x1="7.61621016155" x2="126.16507416155" y1="117.67195533258" y2="117.67195533258">
        <stop offset="0" stop-color="#1a5fb4"/>
        <stop offset="0.0357143" stop-color="#1c71d8"/>
        <stop offset="0.0713653" stop-color="#3584e4"/>
        <stop offset="0.928571" stop-color="#3584e4"/>
        <stop offset="0.964286" stop-color="#1c71d8"/>
        <stop offset="1" stop-color="#1a5fb4"/>
    </linearGradient>
    <linearGradient id="b" gradientUnits="userSpaceOnUse">
        <stop offset="0"/>
        <stop offset="0.0357143" stop-color="#241f31"/>
        <stop offset="0.0713653" stop-color="#3d3846"/>
        <stop offset="0.928571" stop-color="#3d3846"/>
        <stop offset="0.964286" stop-color="#241f31"/>
        <stop offset="1"/>
    </linearGradient>
    <linearGradient id="c" gradientTransform="matrix(0.0884879 0 0 0.18805 10.939302 184.048322)" x1="88.595886" x2="536.595886" xlink:href="#b" y1="-449.394012" y2="-449.394012"/>
    <linearGradient id="d" gradientUnits="userSpaceOnUse">
        <stop offset="0" stop-color="#9a9996"/>
        <stop offset="0.0357143" stop-color="#c0bfbc"/>
        <stop offset="0.0713653" stop-color="#deddda"/>
        <stop offset="0.928571" stop-color="#deddda"/>
        <stop offset="0.964286" stop-color="#c0bfbc"/>
        <stop offset="1" stop-color="#9a9996"/>
    </linearGradient>
    <linearGradient id="e" gradientTransform="matrix(0.07529 0 0 0.0243999 15.064921 55.194669)" x1="88.595886" x2="536.595886" xlink:href="#d" y1="-449.394012" y2="-449.394012"/>
    <linearGradient id="f" gradientTransform="matrix(0.07529 0 0 0.0243999 15.064921 72.432105)" x1="88.595886" x2="536.595886" xlink:href="#d" y1="-449.394012" y2="-449.394012"/>
    <linearGradient id="g" gradientTransform="matrix(0.07529 0 0 0.0243999 15.064921 83.098777)" x1="88.595886" x2="536.595886" xlink:href="#d" y1="-449.394012" y2="-449.394012"/>
    <linearGradient id="h" gradientTransform="matrix(0.07529 0 0 0.0243999 15.064921 93.765434)" x1="88.595886" x2="536.595886" xlink:href="#d" y1="-449.394012" y2="-449.394012"/>
    <linearGradient id="i" gradientTransform="matrix(0.07529 0 0 0.0243999 15.064921 104.432105)" x1="88.595886" x2="536.595886" xlink:href="#d" y1="-449.394012" y2="-449.394012"/>
    <linearGradient id="j" gradientTransform="matrix(0.0884879 0 0 0.18805 63.631189 190.178197)" x1="88.595886" x2="536.595886" xlink:href="#b" y1="-449.394012" y2="-449.394012"/>
    <linearGradient id="k" gradientTransform="matrix(0.07529 0 0 0.0243999 67.756808 61.324544)" x1="88.595886" x2="536.595886" xlink:href="#d" y1="-449.394012" y2="-449.394012"/>
    <linearGradient id="l" gradientTransform="matrix(0.07529 0 0 0.0243999 67.756808 78.561981)" x1="88.595886" x2="536.595886" xlink:href="#d" y1="-449.394012" y2="-449.394012"/>
    <linearGradient id="m" gradientTransform="matrix(0.07529 0 0 0.0243999 67.756808 89.228652)" x1="88.595886" x2="536.595886" xlink:href="#d" y1="-449.394012" y2="-449.394012"/>
    <linearGradient id="n" gradientTransform="matrix(0.07529 0 0 0.0243999 67.756808 99.895309)" x1="88.595886" x2="536.595886" xlink:href="#d" y1="-449.394012" y2="-449.394012"/>
    <linearGradient id="o" gradientTransform="matrix(0.07529 0 0 0.0243999 67.756808 110.561981)" x1="88.595886" x2="536.595886" xlink:href="#d" y1="-449.394012" y2="-449.394012"/>
    <path d="m 16.085938 37.226562 h 101.613281 c 4.675781 0 8.464843 3.792969 8.464843 8.46875 v 63.507813 c 0 4.675781 -3.789062 8.46875 -8.464843 8.46875 h -101.613281 c -4.679688 0 -8.46875 -3.792969 -8.46875 -8.46875 v -63.507813 c 0 -4.675781 3.789062 -8.46875 8.46875 -8.46875 z m 0 0" fill="url(#a)"/>
    <path d="m 16.085938 24.527344 h 101.613281 c 4.675781 0 8.464843 3.789062 8.464843 8.464844 v 71.976562 c 0 4.679688 -3.789062 8.46875 -8.464843 8.46875 h -101.613281 c -4.679688 0 -8.46875 -3.789062 -8.46875 -8.46875 v -71.976562 c 0 -4.675782 3.789062 -8.464844 8.46875 -8.464844 z m 0 0" fill="#99c1f1"/>
    <path d="m 21.609375 42.371094 h 33.980469 c 1.5625 0 2.832031 2.695312 2.832031 6.019531 v 45.132813 c 0 3.320312 -1.269531 6.015624 -2.832031 6.015624 h -33.980469 c -1.5625 0 -2.832031 -2.695312 -2.832031 -6.015624 v -45.132813 c 0 -3.324219 1.269531 -6.019531 2.832031 -6.019531 z m 0 0" fill="url(#c)"/>
    <path d="m 21.609375 33.347656 h 33.980469 c 1.5625 0 2.832031 2.691406 2.832031 6.015625 v 51.148438 c 0 3.324219 -1.269531 6.019531 -2.832031 6.019531 h -33.980469 c -1.5625 0 -2.832031 -2.695312 -2.832031 -6.019531 v -51.148438 c 0 -3.324219 1.269531 -6.015625 2.832031 -6.015625 z m 0 0" fill="#77767b"/>
    <path d="m 24.144531 36.8125 h 28.910157 c 1.332031 0 2.410156 1.660156 2.410156 3.707031 c 0 2.050781 -1.078125 3.710938 -2.410156 3.710938 h -28.910157 c -1.332031 0 -2.410156 -1.660157 -2.410156 -3.710938 c 0 -2.046875 1.078125 -3.707031 2.410156 -3.707031 z m 0 0" fill="url(#e)"/>
    <path d="m 23.921875 36.558594 h 29.355469 c 1.207031 0 2.1875 1.542968 2.1875 3.445312 s -0.980469 3.445313 -2.1875 3.445313 h -29.355469 c -1.207031 0 -2.1875 -1.542969 -2.1875 -3.445313 s 0.980469 -3.445312 2.1875 -3.445312 z m 0 0" fill="#f6f5f4"/>
    <path d="m 24.144531 54.050781 h 28.910157 c 1.332031 0 2.410156 1.660157 2.410156 3.707031 c 0 2.046876 -1.078125 3.710938 -2.410156 3.710938 h -28.910157 c -1.332031 0 -2.410156 -1.664062 -2.410156 -3.710938 c 0 -2.046874 1.078125 -3.707031 2.410156 -3.707031 z m 0 0" fill="url(#f)"/>
    <path d="m 23.921875 53.796875 h 29.355469 c 1.207031 0 2.1875 1.542969 2.1875 3.445313 c 0 1.902343 -0.980469 3.441406 -2.1875 3.441406 h -29.355469 c -1.207031 0 -2.1875 -1.539063 -2.1875 -3.441406 c 0 -1.902344 0.980469 -3.445313 2.1875 -3.445313 z m 0 0" fill="#f6f5f4"/>
    <path d="m 24.144531 64.714844 h 28.910157 c 1.332031 0 2.410156 1.660156 2.410156 3.710937 c 0 2.046875 -1.078125 3.707031 -2.410156 3.707031 h -28.910157 c -1.332031 0 -2.410156 -1.660156 -2.410156 -3.707031 c 0 -2.050781 1.078125 -3.710937 2.410156 -3.710937 z m 0 0" fill="url(#g)"/>
    <path d="m 23.921875 64.460938 h 29.355469 c 1.207031 0 2.1875 1.542968 2.1875 3.445312 s -0.980469 3.445312 -2.1875 3.445312 h -29.355469 c -1.207031 0 -2.1875 -1.542968 -2.1875 -3.445312 s 0.980469 -3.445312 2.1875 -3.445312 z m 0 0" fill="#f6f5f4"/>
    <path d="m 24.144531 75.382812 h 28.910157 c 1.332031 0 2.410156 1.660157 2.410156 3.707032 c 0 2.050781 -1.078125 3.710937 -2.410156 3.710937 h -28.910157 c -1.332031 0 -2.410156 -1.660156 -2.410156 -3.710937 c 0 -2.046875 1.078125 -3.707032 2.410156 -3.707032 z m 0 0" fill="url(#h)"/>
    <path d="m 23.921875 75.128906 h 29.355469 c 1.207031 0 2.1875 1.542969 2.1875 3.445313 c 0 1.902343 -0.980469 3.445312 -2.1875 3.445312 h -29.355469 c -1.207031 0 -2.1875 -1.542969 -2.1875 -3.445312 c 0 -1.902344 0.980469 -3.445313 2.1875 -3.445313 z m 0 0" fill="#f6f5f4"/>
    <path d="m 24.144531 86.050781 h 28.910157 c 1.332031 0 2.410156 1.660157 2.410156 3.707031 c 0 2.046876 -1.078125 3.710938 -2.410156 3.710938 h -28.910157 c -1.332031 0 -2.410156 -1.664062 -2.410156 -3.710938 c 0 -2.046874 1.078125 -3.707031 2.410156 -3.707031 z m 0 0" fill="url(#i)"/>
    <path d="m 23.921875 85.796875 h 29.355469 c 1.207031 0 2.1875 1.542969 2.1875 3.445313 c 0 1.902343 -0.980469 3.441406 -2.1875 3.441406 h -29.355469 c -1.207031 0 -2.1875 -1.539063 -2.1875 -3.441406 c 0 -1.902344 0.980469 -3.445313 2.1875 -3.445313 z m 0 0" fill="#f6f5f4"/>
    <path d="m 74.300781 48.503906 h 33.980469 c 1.5625 0 2.832031 2.691406 2.832031 6.015625 v 45.132813 c 0 3.324218 -1.269531 6.015625 -2.832031 6.015625 h -33.980469 c -1.5625 0 -2.828125 -2.691407 -2.828125 -6.015625 v -45.132813 c 0 -3.324219 1.265625 -6.015625 2.828125 -6.015625 z m 0 0" fill="url(#j)"/>
    <path d="m 74.300781 39.476562 h 33.980469 c 1.5625 0 2.832031 2.695313 2.832031 6.015626 v 51.152343 c 0 3.320313 -1.269531 6.015625 -2.832031 6.015625 h -33.980469 c -1.5625 0 -2.828125 -2.695312 -2.828125 -6.015625 v -51.152343 c 0 -3.320313 1.265625 -6.015626 2.828125 -6.015626 z m 0 0" fill="#77767b"/>
    <path d="m 76.835938 42.941406 h 28.910156 c 1.332031 0 2.410156 1.660156 2.410156 3.710938 c 0 2.046875 -1.078125 3.707031 -2.410156 3.707031 h -28.910156 c -1.328126 0 -2.410157 -1.660156 -2.410157 -3.707031 c 0 -2.050782 1.082031 -3.710938 2.410157 -3.710938 z m 0 0" fill="url(#k)"/>
    <path d="m 76.613281 42.6875 h 29.355469 c 1.210938 0 2.1875 1.542969 2.1875 3.445312 c 0 1.902344 -0.976562 3.445313 -2.1875 3.445313 h -29.355469 c -1.207031 0 -2.1875 -1.542969 -2.1875 -3.445313 c 0 -1.902343 0.980469 -3.445312 2.1875 -3.445312 z m 0 0" fill="#f6f5f4"/>
    <path d="m 76.835938 60.179688 h 28.910156 c 1.332031 0 2.410156 1.660156 2.410156 3.707031 c 0 2.050781 -1.078125 3.710937 -2.410156 3.710937 h -28.910156 c -1.328126 0 -2.410157 -1.660156 -2.410157 -3.710937 c 0 -2.046875 1.082031 -3.707031 2.410157 -3.707031 z m 0 0" fill="url(#l)"/>
    <path d="m 76.613281 59.925781 h 29.355469 c 1.210938 0 2.1875 1.542969 2.1875 3.445313 s -0.976562 3.445312 -2.1875 3.445312 h -29.355469 c -1.207031 0 -2.1875 -1.542968 -2.1875 -3.445312 s 0.980469 -3.445313 2.1875 -3.445313 z m 0 0" fill="#f6f5f4"/>
    <path d="m 76.835938 70.847656 h 28.910156 c 1.332031 0 2.410156 1.660156 2.410156 3.707032 c 0 2.046874 -1.078125 3.707031 -2.410156 3.707031 h -28.910156 c -1.328126 0 -2.410157 -1.660157 -2.410157 -3.707031 c 0 -2.046876 1.082031 -3.707032 2.410157 -3.707032 z m 0 0" fill="url(#m)"/>
    <path d="m 76.613281 70.59375 h 29.355469 c 1.210938 0 2.1875 1.539062 2.1875 3.441406 c 0 1.90625 -0.976562 3.445313 -2.1875 3.445313 h -29.355469 c -1.207031 0 -2.1875 -1.539063 -2.1875 -3.445313 c 0 -1.902344 0.980469 -3.441406 2.1875 -3.441406 z m 0 0" fill="#f6f5f4"/>
    <path d="m 76.835938 81.511719 h 28.910156 c 1.332031 0 2.410156 1.660156 2.410156 3.710937 c 0 2.046875 -1.078125 3.707032 -2.410156 3.707032 h -28.910156 c -1.328126 0 -2.410157 -1.660157 -2.410157 -3.707032 c 0 -2.050781 1.082031 -3.710937 2.410157 -3.710937 z m 0 0" fill="url(#n)"/>
    <path d="m 76.613281 81.257812 h 29.355469 c 1.210938 0 2.1875 1.542969 2.1875 3.445313 s -0.976562 3.445313 -2.1875 3.445313 h -29.355469 c -1.207031 0 -2.1875 -1.542969 -2.1875 -3.445313 s 0.980469 -3.445313 2.1875 -3.445313 z m 0 0" fill="#f6f5f4"/>
    <path d="m 76.835938 92.179688 h 28.910156 c 1.332031 0 2.410156 1.660156 2.410156 3.707031 c 0 2.050781 -1.078125 3.710937 -2.410156 3.710937 h -28.910156 c -1.328126 0 -2.410157 -1.660156 -2.410157 -3.710937 c 0 -2.046875 1.082031 -3.707031 2.410157 -3.707031 z m 0 0" fill="url(#o)"/>
    <path d="m 76.613281 91.925781 h 29.355469 c 1.210938 0 2.1875 1.542969 2.1875 3.445313 s -0.976562 3.445312 -2.1875 3.445312 h -29.355469 c -1.207031 0 -2.1875 -1.542968 -2.1875 -3.445312 s 0.980469 -3.445313 2.1875 -3.445313 z m 0 0" fill="#f6f5f4"/>
</svg>
