<?xml version="1.0" encoding="UTF-8"?>
<svg height="16px" viewBox="0 0 16 16" width="16px" xmlns="http://www.w3.org/2000/svg">
    <path d="m 1.949219 0.0195312 c -1.078125 0 -1.949219 0.8710938 -1.949219 1.9492188 v 12.105469 c 0 1.082031 0.871094 1.953125 1.949219 1.953125 h 12.117187 c 1.078125 0 1.953125 -0.871094 1.953125 -1.953125 v -12.105469 c 0 -1.078125 -0.875 -1.9492188 -1.953125 -1.9492188 z m 0.851562 1.1992188 h 10.347657 c 0.925781 0 1.667968 0.742188 1.667968 1.664062 v 10.339844 c 0 0.921875 -0.742187 1.664063 -1.667968 1.664063 h -10.347657 c -0.921875 0 -1.664062 -0.742188 -1.664062 -1.664063 v -10.339844 c 0 -0.921874 0.742187 -1.664062 1.664062 -1.664062 z m 0 0" fill="#000002"/>
    <path d="m 2.75 1.988281 c -0.292969 0 -0.535156 0.242188 -0.535156 0.542969 v 10.984375 c 0 0.300781 0.242187 0.542969 0.535156 0.542969 h 4.179688 c 0.296874 0 0.535156 -0.242188 0.535156 -0.542969 v -10.984375 c 0 -0.300781 -0.238282 -0.542969 -0.535156 -0.542969 z m 0.203125 0.59375 h 3.773437 c 0.207032 0 0.375 0.171875 0.375 0.382813 v 0.058594 c 0 0.210937 -0.167968 0.378906 -0.375 0.378906 h -3.773437 c -0.207031 0 -0.375 -0.167969 -0.375 -0.378906 v -0.058594 c 0 -0.210938 0.167969 -0.382813 0.375 -0.382813 z m 0.074219 3.445313 h 3.625 c 0.234375 0 0.425781 0.195312 0.425781 0.4375 v 0.066406 c 0 0.238281 -0.191406 0.433594 -0.425781 0.433594 h -3.625 c -0.234375 0 -0.421875 -0.195313 -0.421875 -0.433594 v -0.066406 c 0 -0.242188 0.1875 -0.4375 0.421875 -0.4375 z m 0 1.8125 h 3.625 c 0.234375 0 0.425781 0.191406 0.425781 0.429687 v 0.070313 c 0 0.238281 -0.191406 0.429687 -0.425781 0.429687 h -3.625 c -0.234375 0 -0.421875 -0.191406 -0.421875 -0.429687 v -0.070313 c 0 -0.238281 0.1875 -0.429687 0.421875 -0.429687 z m 0 1.804687 h 3.625 c 0.234375 0 0.425781 0.195313 0.425781 0.433594 v 0.066406 c 0 0.242188 -0.191406 0.433594 -0.425781 0.433594 h -3.625 c -0.234375 0 -0.421875 -0.191406 -0.421875 -0.433594 v -0.066406 c 0 -0.238281 0.1875 -0.433594 0.421875 -0.433594 z m 0 1.808594 h 3.625 c 0.234375 0 0.425781 0.191406 0.425781 0.433594 v 0.066406 c 0 0.238281 -0.191406 0.433594 -0.425781 0.433594 h -3.625 c -0.234375 0 -0.421875 -0.195313 -0.421875 -0.433594 v -0.066406 c 0 -0.242188 0.1875 -0.433594 0.421875 -0.433594 z m 0 0"/>
    <path d="m 9.089844 1.988281 c -0.296875 0 -0.535156 0.242188 -0.535156 0.542969 v 10.984375 c 0 0.300781 0.238281 0.542969 0.535156 0.542969 h 4.179687 c 0.292969 0 0.535157 -0.242188 0.535157 -0.542969 v -10.984375 c 0 -0.300781 -0.242188 -0.542969 -0.535157 -0.542969 z m 0.199218 0.59375 h 3.777344 c 0.207032 0 0.371094 0.171875 0.371094 0.382813 v 0.058594 c 0 0.210937 -0.164062 0.378906 -0.371094 0.378906 h -3.777344 c -0.207031 0 -0.375 -0.167969 -0.375 -0.378906 v -0.058594 c 0 -0.210938 0.167969 -0.382813 0.375 -0.382813 z m 0.078126 3.445313 h 3.621093 c 0.234375 0 0.425781 0.195312 0.425781 0.4375 v 0.066406 c 0 0.238281 -0.191406 0.433594 -0.425781 0.433594 h -3.621093 c -0.238282 0 -0.425782 -0.195313 -0.425782 -0.433594 v -0.066406 c 0 -0.242188 0.1875 -0.4375 0.425782 -0.4375 z m 0 1.8125 h 3.621093 c 0.234375 0 0.425781 0.191406 0.425781 0.429687 v 0.070313 c 0 0.238281 -0.191406 0.429687 -0.425781 0.429687 h -3.621093 c -0.238282 0 -0.425782 -0.191406 -0.425782 -0.429687 v -0.070313 c 0 -0.238281 0.1875 -0.429687 0.425782 -0.429687 z m 0 1.804687 h 3.621093 c 0.234375 0 0.425781 0.195313 0.425781 0.433594 v 0.066406 c 0 0.242188 -0.191406 0.433594 -0.425781 0.433594 h -3.621093 c -0.238282 0 -0.425782 -0.191406 -0.425782 -0.433594 v -0.066406 c 0 -0.238281 0.1875 -0.433594 0.425782 -0.433594 z m 0 1.808594 h 3.621093 c 0.234375 0 0.425781 0.191406 0.425781 0.433594 v 0.066406 c 0 0.238281 -0.191406 0.433594 -0.425781 0.433594 h -3.621093 c -0.238282 0 -0.425782 -0.195313 -0.425782 -0.433594 v -0.066406 c 0 -0.242188 0.1875 -0.433594 0.425782 -0.433594 z m 0 0"/>
</svg>
